# xmcd
#
# Track frame offsets:
#	150
#	20832
#	39830
#	64785
#	85422
#	103390
#	122162
#	139420
#	158947
#	175459
#	193647
#	210967
#	240135
#	259225
#
# Disc length: 3715 seconds
#
# Revision: 1
# Processed by: cddbd v1.5.2PL0 Copyright (c) Steve Scherf et al.
# Submitted via: EZCDAudioConverter 1.0.6.1
#
DISCID=c60e810e
DTITLE=Zydeco Force - It's La La Time
DYEAR=1995
DGENRE=blues
TTITLE0=Saul-O-Pree
TTITLE1=I Don't Know
TTITLE2=Shine
TTITLE3=Why You Wanna Make Me Cry
TTITLE4=I wonder Why
TTITLE5=You For Me
TTITLE6=Back To The Beginning
TTITLE7=Broken Hearted
TTITLE8=Paul's Playhouse
TTITLE9=You Used To Call Me
TTITLE10=Kush-Mal
TTITLE11=Knock Knock
TTITLE12=Boudin and Beer
TTITLE13=Hoochie Coochie
EXTD=
EXTT0=
EXTT1=
EXTT2=
EXTT3=
EXTT4=
EXTT5=
EXTT6=
EXTT7=
EXTT8=
EXTT9=
EXTT10=
EXTT11=
EXTT12=
EXTT13=
PLAYORDER=
